<mxfile host="app.diagrams.net" modified="2023-05-28T16:38:31.514Z" agent="Mozilla/5.0 (Windows NT 10.0; Win64; x64; rv:109.0) Gecko/20100101 Firefox/114.0" etag="rA7q-hqS33sdCUWBDWMw" version="21.3.4" type="onedrive">
  <diagram name="Page-1" id="c4acf3e9-155e-7222-9cf6-157b1a14988f">
    <mxGraphModel grid="1" page="1" gridSize="10" guides="1" tooltips="1" connect="1" arrows="1" fold="1" pageScale="1" pageWidth="850" pageHeight="1100" background="none" math="0" shadow="0">
      <root>
        <mxCell id="0" />
        <mxCell id="1" parent="0" />
        <mxCell id="tub3MnyLHjBKPgWRkiG1-1" value="store-view.fxml" style="html=1;whiteSpace=wrap;" vertex="1" parent="1">
          <mxGeometry x="200" y="200" width="110" height="50" as="geometry" />
        </mxCell>
        <mxCell id="5Ch6xkHOQ6j9b463cIm1-12" value="StoreController" style="swimlane;fontStyle=1;align=center;verticalAlign=top;childLayout=stackLayout;horizontal=1;startSize=26;horizontalStack=0;resizeParent=1;resizeParentMax=0;resizeLast=0;collapsible=1;marginBottom=0;whiteSpace=wrap;html=1;" vertex="1" parent="1">
          <mxGeometry x="75" y="316" width="260" height="242" as="geometry" />
        </mxCell>
        <mxCell id="17acba5748e5396b-3" value="- storeViewPane: BorderPane" style="text;html=1;strokeColor=none;fillColor=none;align=left;verticalAlign=top;spacingLeft=4;spacingRight=4;whiteSpace=wrap;overflow=hidden;rotatable=0;points=[[0,0.5],[1,0.5]];portConstraint=eastwest;" vertex="1" parent="5Ch6xkHOQ6j9b463cIm1-12">
          <mxGeometry y="26" width="260" height="26" as="geometry" />
        </mxCell>
        <mxCell id="17acba5748e5396b-4" value="- loginOutputLabel: Label" style="text;html=1;strokeColor=none;fillColor=none;align=left;verticalAlign=top;spacingLeft=4;spacingRight=4;whiteSpace=wrap;overflow=hidden;rotatable=0;points=[[0,0.5],[1,0.5]];portConstraint=eastwest;" vertex="1" parent="5Ch6xkHOQ6j9b463cIm1-12">
          <mxGeometry y="52" width="260" height="26" as="geometry" />
        </mxCell>
        <mxCell id="17acba5748e5396b-6" value="- loginUsername: TextField" style="text;html=1;strokeColor=none;fillColor=none;align=left;verticalAlign=top;spacingLeft=4;spacingRight=4;whiteSpace=wrap;overflow=hidden;rotatable=0;points=[[0,0.5],[1,0.5]];portConstraint=eastwest;" vertex="1" parent="5Ch6xkHOQ6j9b463cIm1-12">
          <mxGeometry y="78" width="260" height="26" as="geometry" />
        </mxCell>
        <mxCell id="4kTPV8q5zwHn6zjERTrO-1" value="- loginPassword: PasswordField" style="text;html=1;strokeColor=none;fillColor=none;align=left;verticalAlign=top;spacingLeft=4;spacingRight=4;whiteSpace=wrap;overflow=hidden;rotatable=0;points=[[0,0.5],[1,0.5]];portConstraint=eastwest;" vertex="1" parent="5Ch6xkHOQ6j9b463cIm1-12">
          <mxGeometry y="104" width="260" height="26" as="geometry" />
        </mxCell>
        <mxCell id="5Ch6xkHOQ6j9b463cIm1-14" value="" style="line;strokeWidth=1;fillColor=none;align=left;verticalAlign=middle;spacingTop=-1;spacingLeft=3;spacingRight=3;rotatable=0;labelPosition=right;points=[];portConstraint=eastwest;strokeColor=inherit;" vertex="1" parent="5Ch6xkHOQ6j9b463cIm1-12">
          <mxGeometry y="130" width="260" height="8" as="geometry" />
        </mxCell>
        <mxCell id="5Ch6xkHOQ6j9b463cIm1-15" value="+ initialize(): void" style="text;strokeColor=none;fillColor=none;align=left;verticalAlign=top;spacingLeft=4;spacingRight=4;overflow=hidden;rotatable=0;points=[[0,0.5],[1,0.5]];portConstraint=eastwest;whiteSpace=wrap;html=1;" vertex="1" parent="5Ch6xkHOQ6j9b463cIm1-12">
          <mxGeometry y="138" width="260" height="26" as="geometry" />
        </mxCell>
        <mxCell id="ywQBfN_YaVHqNAvCWUK--4" value="- loginErrorMsg(): void" style="text;strokeColor=none;fillColor=none;align=left;verticalAlign=top;spacingLeft=4;spacingRight=4;overflow=hidden;rotatable=0;points=[[0,0.5],[1,0.5]];portConstraint=eastwest;whiteSpace=wrap;html=1;" vertex="1" parent="5Ch6xkHOQ6j9b463cIm1-12">
          <mxGeometry y="164" width="260" height="26" as="geometry" />
        </mxCell>
        <mxCell id="5Ch6xkHOQ6j9b463cIm1-16" value="- onLoginButon(ActionEvent event): void" style="text;strokeColor=none;fillColor=none;align=left;verticalAlign=top;spacingLeft=4;spacingRight=4;overflow=hidden;rotatable=0;points=[[0,0.5],[1,0.5]];portConstraint=eastwest;whiteSpace=wrap;html=1;" vertex="1" parent="5Ch6xkHOQ6j9b463cIm1-12">
          <mxGeometry y="190" width="260" height="26" as="geometry" />
        </mxCell>
        <mxCell id="wu1okzSe4eaxDXMI3S0Y-29" value="- onExitButton(ActionEvent event): void" style="text;strokeColor=none;fillColor=none;align=left;verticalAlign=top;spacingLeft=4;spacingRight=4;overflow=hidden;rotatable=0;points=[[0,0.5],[1,0.5]];portConstraint=eastwest;whiteSpace=wrap;html=1;" vertex="1" parent="5Ch6xkHOQ6j9b463cIm1-12">
          <mxGeometry y="216" width="260" height="26" as="geometry" />
        </mxCell>
        <mxCell id="_LWNujKteYWKgkZ7uh31-4" value="&lt;div&gt;controls&lt;/div&gt;&lt;div&gt;&lt;br&gt;&lt;/div&gt;" style="endArrow=block;endSize=16;endFill=0;html=1;rounded=0;exitX=0.5;exitY=0;exitDx=0;exitDy=0;entryX=0.5;entryY=1;entryDx=0;entryDy=0;" edge="1" parent="1" source="5Ch6xkHOQ6j9b463cIm1-12" target="tub3MnyLHjBKPgWRkiG1-1">
          <mxGeometry x="-0.1111" width="160" relative="1" as="geometry">
            <mxPoint x="495" y="500" as="sourcePoint" />
            <mxPoint x="655" y="500" as="targetPoint" />
            <mxPoint as="offset" />
          </mxGeometry>
        </mxCell>
        <mxCell id="17acba5748e5396b-1" value="frame" style="shape=umlFrame;whiteSpace=wrap;html=1;rounded=0;shadow=0;comic=0;labelBackgroundColor=none;strokeWidth=1;fontFamily=Verdana;fontSize=10;align=center;movable=1;resizable=1;rotatable=1;deletable=1;editable=1;locked=0;connectable=1;" vertex="1" parent="1">
          <mxGeometry x="15" y="20" width="820" height="1060" as="geometry" />
        </mxCell>
        <mxCell id="_LWNujKteYWKgkZ7uh31-16" value="itemEditor-view.fxml" style="html=1;whiteSpace=wrap;" vertex="1" parent="1">
          <mxGeometry x="157.5" y="594" width="135" height="50" as="geometry" />
        </mxCell>
        <mxCell id="_LWNujKteYWKgkZ7uh31-17" value="UserProfileController" style="swimlane;fontStyle=1;align=center;verticalAlign=top;childLayout=stackLayout;horizontal=1;startSize=26;horizontalStack=0;resizeParent=1;resizeParentMax=0;resizeLast=0;collapsible=1;marginBottom=0;whiteSpace=wrap;html=1;" vertex="1" parent="1">
          <mxGeometry x="75" y="696" width="300" height="372" as="geometry" />
        </mxCell>
        <mxCell id="_LWNujKteYWKgkZ7uh31-18" value="- itemEditorPane: DialogPane" style="text;html=1;strokeColor=none;fillColor=none;align=left;verticalAlign=top;spacingLeft=4;spacingRight=4;whiteSpace=wrap;overflow=hidden;rotatable=0;points=[[0,0.5],[1,0.5]];portConstraint=eastwest;" vertex="1" parent="_LWNujKteYWKgkZ7uh31-17">
          <mxGeometry y="26" width="300" height="26" as="geometry" />
        </mxCell>
        <mxCell id="ywQBfN_YaVHqNAvCWUK--2" value="- itemEditorOutputLabel: Label" style="text;html=1;strokeColor=none;fillColor=none;align=left;verticalAlign=top;spacingLeft=4;spacingRight=4;whiteSpace=wrap;overflow=hidden;rotatable=0;points=[[0,0.5],[1,0.5]];portConstraint=eastwest;" vertex="1" parent="_LWNujKteYWKgkZ7uh31-17">
          <mxGeometry y="52" width="300" height="26" as="geometry" />
        </mxCell>
        <mxCell id="_LWNujKteYWKgkZ7uh31-19" value="- itemIdEditor: TextField" style="text;html=1;strokeColor=none;fillColor=none;align=left;verticalAlign=top;spacingLeft=4;spacingRight=4;whiteSpace=wrap;overflow=hidden;rotatable=0;points=[[0,0.5],[1,0.5]];portConstraint=eastwest;" vertex="1" parent="_LWNujKteYWKgkZ7uh31-17">
          <mxGeometry y="78" width="300" height="26" as="geometry" />
        </mxCell>
        <mxCell id="_LWNujKteYWKgkZ7uh31-20" value="- itemTitleEditor: TextField" style="text;html=1;strokeColor=none;fillColor=none;align=left;verticalAlign=top;spacingLeft=4;spacingRight=4;whiteSpace=wrap;overflow=hidden;rotatable=0;points=[[0,0.5],[1,0.5]];portConstraint=eastwest;" vertex="1" parent="_LWNujKteYWKgkZ7uh31-17">
          <mxGeometry y="104" width="300" height="26" as="geometry" />
        </mxCell>
        <mxCell id="_LWNujKteYWKgkZ7uh31-26" value="- itemRentalTypeEditor: ComboBox&amp;lt;String&amp;gt;" style="text;html=1;strokeColor=none;fillColor=none;align=left;verticalAlign=top;spacingLeft=4;spacingRight=4;whiteSpace=wrap;overflow=hidden;rotatable=0;points=[[0,0.5],[1,0.5]];portConstraint=eastwest;" vertex="1" parent="_LWNujKteYWKgkZ7uh31-17">
          <mxGeometry y="130" width="300" height="26" as="geometry" />
        </mxCell>
        <mxCell id="_LWNujKteYWKgkZ7uh31-28" value="- itemGenreEditor: ComboBox&amp;lt;String&amp;gt;" style="text;html=1;strokeColor=none;fillColor=none;align=left;verticalAlign=top;spacingLeft=4;spacingRight=4;whiteSpace=wrap;overflow=hidden;rotatable=0;points=[[0,0.5],[1,0.5]];portConstraint=eastwest;" vertex="1" parent="_LWNujKteYWKgkZ7uh31-17">
          <mxGeometry y="156" width="300" height="26" as="geometry" />
        </mxCell>
        <mxCell id="_LWNujKteYWKgkZ7uh31-29" value="- itemLoanTypeEditor: ComboBox&amp;lt;String&amp;gt;" style="text;html=1;strokeColor=none;fillColor=none;align=left;verticalAlign=top;spacingLeft=4;spacingRight=4;whiteSpace=wrap;overflow=hidden;rotatable=0;points=[[0,0.5],[1,0.5]];portConstraint=eastwest;" vertex="1" parent="_LWNujKteYWKgkZ7uh31-17">
          <mxGeometry y="182" width="300" height="26" as="geometry" />
        </mxCell>
        <mxCell id="_LWNujKteYWKgkZ7uh31-30" value="- itemStockEditor: TextField" style="text;html=1;strokeColor=none;fillColor=none;align=left;verticalAlign=top;spacingLeft=4;spacingRight=4;whiteSpace=wrap;overflow=hidden;rotatable=0;points=[[0,0.5],[1,0.5]];portConstraint=eastwest;" vertex="1" parent="_LWNujKteYWKgkZ7uh31-17">
          <mxGeometry y="208" width="300" height="26" as="geometry" />
        </mxCell>
        <mxCell id="_LWNujKteYWKgkZ7uh31-27" value="- itemFeeEditor: TextField" style="text;html=1;strokeColor=none;fillColor=none;align=left;verticalAlign=top;spacingLeft=4;spacingRight=4;whiteSpace=wrap;overflow=hidden;rotatable=0;points=[[0,0.5],[1,0.5]];portConstraint=eastwest;" vertex="1" parent="_LWNujKteYWKgkZ7uh31-17">
          <mxGeometry y="234" width="300" height="26" as="geometry" />
        </mxCell>
        <mxCell id="4kTPV8q5zwHn6zjERTrO-40" value="- itemRentalStatus: ComboBox&amp;lt;String&amp;gt;" style="text;html=1;strokeColor=none;fillColor=none;align=left;verticalAlign=top;spacingLeft=4;spacingRight=4;whiteSpace=wrap;overflow=hidden;rotatable=0;points=[[0,0.5],[1,0.5]];portConstraint=eastwest;" vertex="1" parent="_LWNujKteYWKgkZ7uh31-17">
          <mxGeometry y="260" width="300" height="26" as="geometry" />
        </mxCell>
        <mxCell id="_LWNujKteYWKgkZ7uh31-31" value="- item: Item" style="text;html=1;strokeColor=none;fillColor=none;align=left;verticalAlign=top;spacingLeft=4;spacingRight=4;whiteSpace=wrap;overflow=hidden;rotatable=0;points=[[0,0.5],[1,0.5]];portConstraint=eastwest;" vertex="1" parent="_LWNujKteYWKgkZ7uh31-17">
          <mxGeometry y="286" width="300" height="26" as="geometry" />
        </mxCell>
        <mxCell id="_LWNujKteYWKgkZ7uh31-21" value="" style="line;strokeWidth=1;fillColor=none;align=left;verticalAlign=middle;spacingTop=-1;spacingLeft=3;spacingRight=3;rotatable=0;labelPosition=right;points=[];portConstraint=eastwest;strokeColor=inherit;" vertex="1" parent="_LWNujKteYWKgkZ7uh31-17">
          <mxGeometry y="312" width="300" height="8" as="geometry" />
        </mxCell>
        <mxCell id="ywQBfN_YaVHqNAvCWUK--3" value="+ initialize(): void" style="text;strokeColor=none;fillColor=none;align=left;verticalAlign=top;spacingLeft=4;spacingRight=4;overflow=hidden;rotatable=0;points=[[0,0.5],[1,0.5]];portConstraint=eastwest;whiteSpace=wrap;html=1;" vertex="1" parent="_LWNujKteYWKgkZ7uh31-17">
          <mxGeometry y="320" width="300" height="26" as="geometry" />
        </mxCell>
        <mxCell id="_LWNujKteYWKgkZ7uh31-22" value="+ setItem(Item item): void" style="text;strokeColor=none;fillColor=none;align=left;verticalAlign=top;spacingLeft=4;spacingRight=4;overflow=hidden;rotatable=0;points=[[0,0.5],[1,0.5]];portConstraint=eastwest;whiteSpace=wrap;html=1;" vertex="1" parent="_LWNujKteYWKgkZ7uh31-17">
          <mxGeometry y="346" width="300" height="26" as="geometry" />
        </mxCell>
        <mxCell id="_LWNujKteYWKgkZ7uh31-25" value="&lt;div&gt;controls&lt;/div&gt;&lt;div&gt;&lt;br&gt;&lt;/div&gt;" style="endArrow=block;endSize=16;endFill=0;html=1;rounded=0;exitX=0.5;exitY=0;exitDx=0;exitDy=0;entryX=0.5;entryY=1;entryDx=0;entryDy=0;" edge="1" parent="1" source="_LWNujKteYWKgkZ7uh31-17" target="_LWNujKteYWKgkZ7uh31-16">
          <mxGeometry x="-0.1111" width="160" relative="1" as="geometry">
            <mxPoint x="175" y="870" as="sourcePoint" />
            <mxPoint x="335" y="870" as="targetPoint" />
            <mxPoint as="offset" />
          </mxGeometry>
        </mxCell>
        <mxCell id="_LWNujKteYWKgkZ7uh31-36" value="itemTable-view.fxml" style="html=1;whiteSpace=wrap;" vertex="1" parent="1">
          <mxGeometry x="515" y="200" width="167.5" height="50" as="geometry" />
        </mxCell>
        <mxCell id="_LWNujKteYWKgkZ7uh31-37" value="ItemTableController" style="swimlane;fontStyle=1;align=center;verticalAlign=top;childLayout=stackLayout;horizontal=1;startSize=26;horizontalStack=0;resizeParent=1;resizeParentMax=0;resizeLast=0;collapsible=1;marginBottom=0;whiteSpace=wrap;html=1;" vertex="1" parent="1">
          <mxGeometry x="385" y="300" width="360" height="294" as="geometry" />
        </mxCell>
        <mxCell id="4kTPV8q5zwHn6zjERTrO-5" value="- itemTableStore: TableView&amp;lt;Customer&amp;gt;" style="text;html=1;strokeColor=none;fillColor=none;align=left;verticalAlign=top;spacingLeft=4;spacingRight=4;whiteSpace=wrap;overflow=hidden;rotatable=0;points=[[0,0.5],[1,0.5]];portConstraint=eastwest;" vertex="1" parent="_LWNujKteYWKgkZ7uh31-37">
          <mxGeometry y="26" width="360" height="26" as="geometry" />
        </mxCell>
        <mxCell id="_LWNujKteYWKgkZ7uh31-56" value="- itemIdStore: TableColumn&amp;lt;Customer, String&amp;gt;" style="text;strokeColor=none;fillColor=none;align=left;verticalAlign=top;spacingLeft=4;spacingRight=4;overflow=hidden;rotatable=0;points=[[0,0.5],[1,0.5]];portConstraint=eastwest;whiteSpace=wrap;html=1;" vertex="1" parent="_LWNujKteYWKgkZ7uh31-37">
          <mxGeometry y="52" width="360" height="26" as="geometry" />
        </mxCell>
        <mxCell id="_LWNujKteYWKgkZ7uh31-57" value="- itemTitleStore: TableColumn&amp;lt;Customer, String&amp;gt;" style="text;strokeColor=none;fillColor=none;align=left;verticalAlign=top;spacingLeft=4;spacingRight=4;overflow=hidden;rotatable=0;points=[[0,0.5],[1,0.5]];portConstraint=eastwest;whiteSpace=wrap;html=1;" vertex="1" parent="_LWNujKteYWKgkZ7uh31-37">
          <mxGeometry y="78" width="360" height="26" as="geometry" />
        </mxCell>
        <mxCell id="_LWNujKteYWKgkZ7uh31-58" value="- itemRentalTypeStore: TableColumn&amp;lt;Customer, String&amp;gt;" style="text;strokeColor=none;fillColor=none;align=left;verticalAlign=top;spacingLeft=4;spacingRight=4;overflow=hidden;rotatable=0;points=[[0,0.5],[1,0.5]];portConstraint=eastwest;whiteSpace=wrap;html=1;" vertex="1" parent="_LWNujKteYWKgkZ7uh31-37">
          <mxGeometry y="104" width="360" height="26" as="geometry" />
        </mxCell>
        <mxCell id="_LWNujKteYWKgkZ7uh31-59" value="- itemGenreStore: TableColumn&amp;lt;Customer, String&amp;gt;" style="text;strokeColor=none;fillColor=none;align=left;verticalAlign=top;spacingLeft=4;spacingRight=4;overflow=hidden;rotatable=0;points=[[0,0.5],[1,0.5]];portConstraint=eastwest;whiteSpace=wrap;html=1;" vertex="1" parent="_LWNujKteYWKgkZ7uh31-37">
          <mxGeometry y="130" width="360" height="26" as="geometry" />
        </mxCell>
        <mxCell id="_LWNujKteYWKgkZ7uh31-60" value="- itemLoanTypeStore: TableColumn&amp;lt;Customer, String&amp;gt;" style="text;strokeColor=none;fillColor=none;align=left;verticalAlign=top;spacingLeft=4;spacingRight=4;overflow=hidden;rotatable=0;points=[[0,0.5],[1,0.5]];portConstraint=eastwest;whiteSpace=wrap;html=1;" vertex="1" parent="_LWNujKteYWKgkZ7uh31-37">
          <mxGeometry y="156" width="360" height="26" as="geometry" />
        </mxCell>
        <mxCell id="_LWNujKteYWKgkZ7uh31-62" value="- itemStockStore: TableColumn&amp;lt;Customer, String&amp;gt;" style="text;strokeColor=none;fillColor=none;align=left;verticalAlign=top;spacingLeft=4;spacingRight=4;overflow=hidden;rotatable=0;points=[[0,0.5],[1,0.5]];portConstraint=eastwest;whiteSpace=wrap;html=1;" vertex="1" parent="_LWNujKteYWKgkZ7uh31-37">
          <mxGeometry y="182" width="360" height="26" as="geometry" />
        </mxCell>
        <mxCell id="_LWNujKteYWKgkZ7uh31-61" value="- itemFeeStore: TableColumn&amp;lt;Customer, String&amp;gt;" style="text;strokeColor=none;fillColor=none;align=left;verticalAlign=top;spacingLeft=4;spacingRight=4;overflow=hidden;rotatable=0;points=[[0,0.5],[1,0.5]];portConstraint=eastwest;whiteSpace=wrap;html=1;" vertex="1" parent="_LWNujKteYWKgkZ7uh31-37">
          <mxGeometry y="208" width="360" height="26" as="geometry" />
        </mxCell>
        <mxCell id="ywQBfN_YaVHqNAvCWUK--1" value="- itemRentalStatus: TableColumn&amp;lt;Customer, String&amp;gt;" style="text;strokeColor=none;fillColor=none;align=left;verticalAlign=top;spacingLeft=4;spacingRight=4;overflow=hidden;rotatable=0;points=[[0,0.5],[1,0.5]];portConstraint=eastwest;whiteSpace=wrap;html=1;" vertex="1" parent="_LWNujKteYWKgkZ7uh31-37">
          <mxGeometry y="234" width="360" height="26" as="geometry" />
        </mxCell>
        <mxCell id="_LWNujKteYWKgkZ7uh31-47" value="" style="line;strokeWidth=1;fillColor=none;align=left;verticalAlign=middle;spacingTop=-1;spacingLeft=3;spacingRight=3;rotatable=0;labelPosition=right;points=[];portConstraint=eastwest;strokeColor=inherit;" vertex="1" parent="_LWNujKteYWKgkZ7uh31-37">
          <mxGeometry y="260" width="360" height="8" as="geometry" />
        </mxCell>
        <mxCell id="_LWNujKteYWKgkZ7uh31-48" value="+ initialize(): void" style="text;strokeColor=none;fillColor=none;align=left;verticalAlign=top;spacingLeft=4;spacingRight=4;overflow=hidden;rotatable=0;points=[[0,0.5],[1,0.5]];portConstraint=eastwest;whiteSpace=wrap;html=1;" vertex="1" parent="_LWNujKteYWKgkZ7uh31-37">
          <mxGeometry y="268" width="360" height="26" as="geometry" />
        </mxCell>
        <mxCell id="_LWNujKteYWKgkZ7uh31-54" value="&lt;div&gt;controls&lt;/div&gt;&lt;div&gt;&lt;br&gt;&lt;/div&gt;" style="endArrow=block;endSize=16;endFill=0;html=1;rounded=0;exitX=0.431;exitY=-0.008;exitDx=0;exitDy=0;entryX=0.5;entryY=1;entryDx=0;entryDy=0;exitPerimeter=0;" edge="1" parent="1" source="_LWNujKteYWKgkZ7uh31-37" target="_LWNujKteYWKgkZ7uh31-36">
          <mxGeometry x="-0.1111" width="160" relative="1" as="geometry">
            <mxPoint x="905" y="798" as="sourcePoint" />
            <mxPoint x="1065" y="798" as="targetPoint" />
            <mxPoint as="offset" />
          </mxGeometry>
        </mxCell>
        <mxCell id="ywQBfN_YaVHqNAvCWUK--6" value="customer-view.fxml" style="html=1;whiteSpace=wrap;" vertex="1" parent="1">
          <mxGeometry x="335" y="200" width="135" height="50" as="geometry" />
        </mxCell>
        <mxCell id="ywQBfN_YaVHqNAvCWUK--8" value="admin-view.fxml" style="html=1;whiteSpace=wrap;" vertex="1" parent="1">
          <mxGeometry x="75" y="200" width="110" height="50" as="geometry" />
        </mxCell>
        <mxCell id="ywQBfN_YaVHqNAvCWUK--9" value="Use" style="endArrow=open;endSize=12;dashed=1;html=1;rounded=0;exitX=0.185;exitY=-0.008;exitDx=0;exitDy=0;exitPerimeter=0;entryX=0.591;entryY=1.04;entryDx=0;entryDy=0;entryPerimeter=0;" edge="1" parent="1" source="5Ch6xkHOQ6j9b463cIm1-12" target="ywQBfN_YaVHqNAvCWUK--8">
          <mxGeometry width="160" relative="1" as="geometry">
            <mxPoint x="275" y="380" as="sourcePoint" />
            <mxPoint x="435" y="380" as="targetPoint" />
          </mxGeometry>
        </mxCell>
        <mxCell id="ywQBfN_YaVHqNAvCWUK--10" value="Use" style="endArrow=open;endSize=12;dashed=1;html=1;rounded=0;exitX=0.815;exitY=-0.004;exitDx=0;exitDy=0;exitPerimeter=0;entryX=0.25;entryY=1;entryDx=0;entryDy=0;" edge="1" parent="1" source="5Ch6xkHOQ6j9b463cIm1-12" target="ywQBfN_YaVHqNAvCWUK--6">
          <mxGeometry width="160" relative="1" as="geometry">
            <mxPoint x="183" y="318" as="sourcePoint" />
            <mxPoint x="150" y="262" as="targetPoint" />
          </mxGeometry>
        </mxCell>
        <mxCell id="ywQBfN_YaVHqNAvCWUK--11" value="SceneUtilities" style="swimlane;fontStyle=1;align=center;verticalAlign=top;childLayout=stackLayout;horizontal=1;startSize=26;horizontalStack=0;resizeParent=1;resizeParentMax=0;resizeLast=0;collapsible=1;marginBottom=0;whiteSpace=wrap;html=1;" vertex="1" parent="1">
          <mxGeometry x="395" y="644" width="380" height="386" as="geometry" />
        </mxCell>
        <mxCell id="ywQBfN_YaVHqNAvCWUK--16" value="" style="line;strokeWidth=1;fillColor=none;align=left;verticalAlign=middle;spacingTop=-1;spacingLeft=3;spacingRight=3;rotatable=0;labelPosition=right;points=[];portConstraint=eastwest;strokeColor=inherit;" vertex="1" parent="ywQBfN_YaVHqNAvCWUK--11">
          <mxGeometry y="26" width="380" height="8" as="geometry" />
        </mxCell>
        <mxCell id="ywQBfN_YaVHqNAvCWUK--17" value="+ sceneSwitch(BorderPane currPane, String fxml): void" style="text;strokeColor=none;fillColor=none;align=left;verticalAlign=top;spacingLeft=4;spacingRight=4;overflow=hidden;rotatable=0;points=[[0,0.5],[1,0.5]];portConstraint=eastwest;whiteSpace=wrap;html=1;" vertex="1" parent="ywQBfN_YaVHqNAvCWUK--11">
          <mxGeometry y="34" width="380" height="26" as="geometry" />
        </mxCell>
        <mxCell id="ywQBfN_YaVHqNAvCWUK--18" value="+ sceneSwitch(BorderPane currPane, BorderPane nextPane): void" style="text;strokeColor=none;fillColor=none;align=left;verticalAlign=top;spacingLeft=4;spacingRight=4;overflow=hidden;rotatable=0;points=[[0,0.5],[1,0.5]];portConstraint=eastwest;whiteSpace=wrap;html=1;" vertex="1" parent="ywQBfN_YaVHqNAvCWUK--11">
          <mxGeometry y="60" width="380" height="26" as="geometry" />
        </mxCell>
        <mxCell id="ywQBfN_YaVHqNAvCWUK--21" value="+ adTab(TabPane parent, String fxml, String title): void" style="text;strokeColor=none;fillColor=none;align=left;verticalAlign=top;spacingLeft=4;spacingRight=4;overflow=hidden;rotatable=0;points=[[0,0.5],[1,0.5]];portConstraint=eastwest;whiteSpace=wrap;html=1;" vertex="1" parent="ywQBfN_YaVHqNAvCWUK--11">
          <mxGeometry y="86" width="380" height="26" as="geometry" />
        </mxCell>
        <mxCell id="ywQBfN_YaVHqNAvCWUK--22" value="+ itemFilter(ObservableList&amp;lt;Item&amp;gt; items, TextField searchBar, TableView&amp;lt;Item&amp;gt; tableView): void" style="text;strokeColor=none;fillColor=none;align=left;verticalAlign=top;spacingLeft=4;spacingRight=4;overflow=hidden;rotatable=0;points=[[0,0.5],[1,0.5]];portConstraint=eastwest;whiteSpace=wrap;html=1;" vertex="1" parent="ywQBfN_YaVHqNAvCWUK--11">
          <mxGeometry y="112" width="380" height="48" as="geometry" />
        </mxCell>
        <mxCell id="ywQBfN_YaVHqNAvCWUK--24" value="+ confirmationDialog(String title, String header, String context): Optional&amp;lt;ButtonType&amp;gt;" style="text;strokeColor=none;fillColor=none;align=left;verticalAlign=top;spacingLeft=4;spacingRight=4;overflow=hidden;rotatable=0;points=[[0,0.5],[1,0.5]];portConstraint=eastwest;whiteSpace=wrap;html=1;" vertex="1" parent="ywQBfN_YaVHqNAvCWUK--11">
          <mxGeometry y="160" width="380" height="48" as="geometry" />
        </mxCell>
        <mxCell id="ywQBfN_YaVHqNAvCWUK--25" value="+ warningDialog(String title, String header, String context): Optional&amp;lt;ButtonType&amp;gt;" style="text;strokeColor=none;fillColor=none;align=left;verticalAlign=top;spacingLeft=4;spacingRight=4;overflow=hidden;rotatable=0;points=[[0,0.5],[1,0.5]];portConstraint=eastwest;whiteSpace=wrap;html=1;" vertex="1" parent="ywQBfN_YaVHqNAvCWUK--11">
          <mxGeometry y="208" width="380" height="48" as="geometry" />
        </mxCell>
        <mxCell id="ywQBfN_YaVHqNAvCWUK--26" value="+ getObsItemList(): ObservableList&amp;lt;Item&amp;gt;" style="text;strokeColor=none;fillColor=none;align=left;verticalAlign=top;spacingLeft=4;spacingRight=4;overflow=hidden;rotatable=0;points=[[0,0.5],[1,0.5]];portConstraint=eastwest;whiteSpace=wrap;html=1;" vertex="1" parent="ywQBfN_YaVHqNAvCWUK--11">
          <mxGeometry y="256" width="380" height="26" as="geometry" />
        </mxCell>
        <mxCell id="ywQBfN_YaVHqNAvCWUK--27" value="+ getObsOOSItemList(): ObservableList&amp;lt;Item&amp;gt;" style="text;strokeColor=none;fillColor=none;align=left;verticalAlign=top;spacingLeft=4;spacingRight=4;overflow=hidden;rotatable=0;points=[[0,0.5],[1,0.5]];portConstraint=eastwest;whiteSpace=wrap;html=1;" vertex="1" parent="ywQBfN_YaVHqNAvCWUK--11">
          <mxGeometry y="282" width="380" height="26" as="geometry" />
        </mxCell>
        <mxCell id="ywQBfN_YaVHqNAvCWUK--28" value="+ getObsAllItemList(): ObservableList&amp;lt;Item&amp;gt;" style="text;strokeColor=none;fillColor=none;align=left;verticalAlign=top;spacingLeft=4;spacingRight=4;overflow=hidden;rotatable=0;points=[[0,0.5],[1,0.5]];portConstraint=eastwest;whiteSpace=wrap;html=1;" vertex="1" parent="ywQBfN_YaVHqNAvCWUK--11">
          <mxGeometry y="308" width="380" height="26" as="geometry" />
        </mxCell>
        <mxCell id="ywQBfN_YaVHqNAvCWUK--29" value="+ logoutSave(BorderPane pane): void" style="text;strokeColor=none;fillColor=none;align=left;verticalAlign=top;spacingLeft=4;spacingRight=4;overflow=hidden;rotatable=0;points=[[0,0.5],[1,0.5]];portConstraint=eastwest;whiteSpace=wrap;html=1;" vertex="1" parent="ywQBfN_YaVHqNAvCWUK--11">
          <mxGeometry y="334" width="380" height="26" as="geometry" />
        </mxCell>
        <mxCell id="ywQBfN_YaVHqNAvCWUK--30" value="+ isNumeric(String str): boolean" style="text;strokeColor=none;fillColor=none;align=left;verticalAlign=top;spacingLeft=4;spacingRight=4;overflow=hidden;rotatable=0;points=[[0,0.5],[1,0.5]];portConstraint=eastwest;whiteSpace=wrap;html=1;" vertex="1" parent="ywQBfN_YaVHqNAvCWUK--11">
          <mxGeometry y="360" width="380" height="26" as="geometry" />
        </mxCell>
        <mxCell id="ywQBfN_YaVHqNAvCWUK--31" value="StoreApplication" style="swimlane;fontStyle=1;align=center;verticalAlign=top;childLayout=stackLayout;horizontal=1;startSize=26;horizontalStack=0;resizeParent=1;resizeParentMax=0;resizeLast=0;collapsible=1;marginBottom=0;whiteSpace=wrap;html=1;" vertex="1" parent="1">
          <mxGeometry x="185" y="50" width="140" height="60" as="geometry" />
        </mxCell>
        <mxCell id="ywQBfN_YaVHqNAvCWUK--41" value="" style="line;strokeWidth=1;fillColor=none;align=left;verticalAlign=middle;spacingTop=-1;spacingLeft=3;spacingRight=3;rotatable=0;labelPosition=right;points=[];portConstraint=eastwest;strokeColor=inherit;" vertex="1" parent="ywQBfN_YaVHqNAvCWUK--31">
          <mxGeometry y="26" width="140" height="8" as="geometry" />
        </mxCell>
        <mxCell id="ywQBfN_YaVHqNAvCWUK--42" value="+ main(): void" style="text;strokeColor=none;fillColor=none;align=left;verticalAlign=top;spacingLeft=4;spacingRight=4;overflow=hidden;rotatable=0;points=[[0,0.5],[1,0.5]];portConstraint=eastwest;whiteSpace=wrap;html=1;" vertex="1" parent="ywQBfN_YaVHqNAvCWUK--31">
          <mxGeometry y="34" width="140" height="26" as="geometry" />
        </mxCell>
        <mxCell id="ywQBfN_YaVHqNAvCWUK--43" value="Use" style="endArrow=open;endSize=12;dashed=1;html=1;rounded=0;exitX=0.464;exitY=1.115;exitDx=0;exitDy=0;exitPerimeter=0;entryX=0.5;entryY=0;entryDx=0;entryDy=0;" edge="1" parent="1" source="ywQBfN_YaVHqNAvCWUK--42" target="tub3MnyLHjBKPgWRkiG1-1">
          <mxGeometry width="160" relative="1" as="geometry">
            <mxPoint x="133" y="324" as="sourcePoint" />
            <mxPoint x="150" y="262" as="targetPoint" />
          </mxGeometry>
        </mxCell>
      </root>
    </mxGraphModel>
  </diagram>
</mxfile>
